<?xml version="1.0" encoding="utf-8"?>
<svg xmlns="http://www.w3.org/2000/svg" viewBox="0 0 640 480">
  <g fill-rule="evenodd">
    <path fill="#229e45" d="M0 0h640v480H0z"/>
    <path fill="#f8e509" d="m321.4 436 301.5-195.7L319.6 44 17.1 239.7 321.4 436z"/>
    <path fill="#2b49a3" d="M452.8 240c0 70.3-57.1 127.3-127.6 127.3A127.4 127.4 0 1 1 452.8 240z"/>
    <path fill="#ffffef" d="m283.3 316.3-4-2.3-4 2 .9-4.5-3.2-3.4 4.5-.5 2.2-4 1.9 4.2 4.4.8-3.3 3m86 26.3-3.9-2.3-4 2 .8-4.5-3.1-3.3 4.5-.5 2.2-4.1 1.9 4.2 4.4.8-3.4 3m-36.2-30-3.4-2-3.5 1.8.8-3.9-2.8-2.9 4-.4 1.9-3.5 1.6 3.7 3.9.7-3 2.7m87-8.5-3.4-2-3.5 1.8.8-3.9-2.7-2.8 3.9-.4 1.9-3.5 1.6 3.6 3.8.7-2.9 2.6m-87.3-22-4-2.2-4 2 .8-4.6-3.1-3.3 4.5-.5 2.1-4.1 2 4.2 4.4.8-3.4 3.1m-66.6-5.4-4-2.2-4 2 1-4.6-3.3-3.3 4.6-.5 2-4.1 2 4.2 4.4.8-3.3 3.1m76.8-24.8-3.9-2.3-4 2 .9-4.5-3.2-3.3 4.5-.6 2.1-4 2 4.2 4.4.8-3.3 3m-68.8-5.7-4-2.2-4 2 .9-4.6-3.2-3.3 4.5-.6 2.2-4 1.9 4.2 4.4.8-3.3 3.1m-8.3-23.8-4-2.3-4 2 1-4.5-3.3-3.3 4.6-.6 2-4 2 4.1 4.4.9-3.3 3m82.3-14.5-4-2.2-4 2 .9-4.6-3.2-3.3 4.5-.5 2.2-4.1 1.9 4.2 4.4.8-3.3 3.1m-7-29.1-4-2.3-4 2 1-4.5-3.3-3.3 4.6-.6 2-4 2 4.2 4.4.8-3.3 3m-67-5.4-4-2.3-4 2 .9-4.5-3.2-3.3 4.5-.6 2.2-4 1.9 4.2 4.4.8-3.3 3.1m157.4 58.4-4-2.2-4 2 1-4.6-3.3-3.3 4.6-.5 2-4.1 2 4.2 4.4.8-3.3 3.1m-83.2-22-4-2.2-4 2 1-4.6-3.3-3.3 4.5-.5 2.1-4.1 2 4.2 4.4.8-3.3 3m86.3-2-4-2.2-4 2 1-4.6-3.2-3.3 4.5-.5 2-4.1 2 4.2 4.4.8-3.2 3.1m-80-15.8-4-2.2-4 2 .9-4.6-3.2-3.3 4.5-.5 2.2-4.1 1.9 4.2 4.4.8-3.3 3m-9.7-18.7-4-2.3-4 2 1-4.5-3.3-3.3 4.5-.6 2.1-4 2 4.1 4.4.9-3.3 3M467.4 214l-4-2.3-4 2 .9-4.5-3.2-3.3 4.5-.6 2.2-4 1.9 4.2 4.4.8-3.3 3.1m7.8-25.7-4-2.3-4 2 .9-4.5-3.2-3.3 4.5-.6 2.2-4 1.9 4.2 4.4.8-3.3 3.1M370.5 212l-4-2.3-4 2 .8-4.5-3.1-3.3 4.5-.6 2.1-4 2 4.2 4.4.8-3.3 3.1m27.7 18.3-4-2.2-4 2 .9-4.6-3.2-3.3 4.5-.5 2.2-4.1 1.9 4.2 4.4.8-3.3 3.1"/>
  </g>
</svg>
